<?xml version="1.0" encoding="utf-8"?>
<!-- Generator: Adobe Illustrator 26.1.0, SVG Export Plug-In . SVG Version: 6.00 Build 0)  -->
<svg version="1.1" id="Layer_1" xmlns="http://www.w3.org/2000/svg" xmlns:xlink="http://www.w3.org/1999/xlink" x="0px" y="0px"
	 viewBox="0 0 800 800" style="enable-background:new 0 0 800 800;" xml:space="preserve">
<style type="text/css">
	.st0{fill:#006D8B;}
	.st1{fill:#1B0F0A;}
	.st2{fill:url(#SVGID_1_);}
	.st3{opacity:0.28;fill:url(#SVGID_00000171690642384680223350000004028849534123951754_);}
	.st4{opacity:0.28;fill:url(#SVGID_00000067927084103609449760000002251871411532670084_);}
	.st5{opacity:0.28;fill:url(#SVGID_00000089554151234302900380000013146361311211837111_);}
	.st6{fill:url(#SVGID_00000029004904051796982020000014672049500226720179_);}
	.st7{opacity:0.64;fill:#180F2C;}
	.st8{opacity:0.28;fill:url(#SVGID_00000085216865545959218360000001842190316928598144_);}
	.st9{opacity:0.28;fill:url(#SVGID_00000147931290574937217010000006210870744521192634_);}
	.st10{opacity:0.28;fill:url(#SVGID_00000018916535687203071990000001770540988546173854_);}
	.st11{fill:url(#SVGID_00000078011163391059865980000014089003348221480589_);}
	.st12{fill:url(#SVGID_00000028312073167973218420000017954487728418843315_);}
	.st13{opacity:0.2;fill:url(#SVGID_00000016788061175901180330000010570000011749790088_);}
	.st14{opacity:0.47;fill:url(#SVGID_00000125591585907444317240000010865386451478449329_);}
	.st15{opacity:0.47;fill:url(#SVGID_00000021115390028105504920000005264734417231563686_);}
	.st16{opacity:0.28;fill:url(#SVGID_00000103229647833504699610000006346334936747703945_);}
	.st17{opacity:0.28;fill:url(#SVGID_00000163779757895499970530000013419579373897449609_);}
	.st18{opacity:0.28;fill:url(#SVGID_00000160896605426823683030000014972256492285054388_);}
	.st19{font-family:'FTPContaria';}
	.st20{font-size:129.5576px;}
</style>
<path class="st0" d="M220.09,341.17c-0.19,0.41-0.39,0.8-0.6,1.21c-0.41,0.83-0.83,1.65-1.26,2.47c-1.33,2.49-2.75,5.02-4.32,7.49
	c-1.59,2.35-3.04,4.73-4.71,7.02c-0.7,1.01-1.41,2-2.14,3c-2.6,3.59-5.3,7.13-8.14,10.61c-7.11,8.92-14.98,17.41-22.98,25.71
	c-8.16,8.39-16.56,16.55-25.04,24.61c0,0-11.98,1.86-25.87,5.65c-6.63,1.8-13.73,4.05-20.15,6.74c0.04-0.05,0.1-0.08,0.13-0.13
	c17.16-15.32,33.98-30.6,47.65-46.98c6.9-8.15,13.01-16.54,18.13-25.11c1.3-2.14,2.53-4.3,3.67-6.46c1.21-2.15,2.26-4.33,3.29-6.52
	c1.07-2.17,1.93-4.37,2.89-6.54c0.87-2.11,1.59-4.19,2.27-6.36c0.43-1.33,0.82-2.68,1.16-4.02c1.93-7.31,2.85-14.71,2.39-21.26
	c-0.08-1.01-0.2-1.96-0.36-2.9c-0.15-0.86-0.33-1.73-0.51-2.54c-0.47-1.62-1.05-3.13-1.72-4.29c-0.67-1.12-1.4-1.96-1.95-2.41
	c0.5,0.11,8.99,2.24,17.86,8.21C208.91,314.53,218.46,324.78,220.09,341.17z"/>
<path class="st1" d="M213.12,440.55c0.43,4.94-0.77,9.34-2.32,13.16c-1.6,3.84-3.6,7.26-5.54,10.28c-1.92,3.05-3.99,6.02-6.17,8.95
	c-2.9,3.89-5.94,7.69-9.12,11.41c3.86-9.61,5.12-17.41,4.76-23.71c-0.19-3.96-1.06-7.34-2.34-10.19
	c-5.33-12.1-17.84-15.15-19.6-15.51c-0.15-0.04-0.22-0.05-0.22-0.05c-1.21-0.36-2.51-0.57-3.82-0.82c-5.3-0.8-11.75-0.42-18.51,0.93
	c-6.81,1.38-13.87,3.57-20.94,6.25l-0.18,0.07c-7.03,2.65-15.74,0.76-19.47-4.22c-2.72-3.6-2.05-7.85,1.18-10.92
	c21.77-9.36,50.5-13.94,50.5-13.94c4.06-0.17,8.26-0.1,12.52,0.36c2.61,0.31,5.23,0.69,7.81,1.26c0.07,0.01,0.17,0.04,0.25,0.06
	c0.17,0.02,0.37,0.07,0.54,0.11c1.39,0.28,2.91,0.68,4.4,1.13c1.48,0.44,2.93,0.93,4.34,1.49c5.65,2.18,10.86,5.27,14.96,9.42
	c2.04,2.07,3.74,4.45,4.92,6.97C212.27,435.52,212.91,438.08,213.12,440.55z"/>
<linearGradient id="SVGID_1_" gradientUnits="userSpaceOnUse" x1="83.8349" y1="462.1316" x2="174.0027" y2="462.1316" gradientTransform="matrix(0.9933 -0.1154 0.1154 0.9933 -29.4869 37.8359)">
	<stop  offset="0" style="stop-color:#009DFF"/>
	<stop  offset="1" style="stop-color:#1F2D5D"/>
</linearGradient>
<path class="st2" d="M193.6,472.88c-0.77,3.5-1.96,7.32-3.63,11.46c-1.59,1.86-3.2,3.71-4.86,5.55c-0.69,0.75-1.4,1.51-2.09,2.26
	c-4.31,4.64-8.77,9.13-13.14,13.57c-5.17,5.13-10.27,10.19-15.22,15.21c-7.73,7.91-23.01,9.85-34.15,4.36
	c-5.99-2.96-9.55-7.47-10.35-12.21c-0.7-4.11,0.64-8.38,4.23-12.04c1.02-1.05,2.3-2.06,3.55-2.89c6.34-4.13,12.46-8.25,18.3-12.44
	c5.88-4.14,11.43-8.39,16.68-12.73c3.36-2.74,6.54-5.54,9.52-8.38c1.74-1.64,3.41-3.31,5-4.98c2.23-2.29,4.27-4.63,6.17-7.02
	c0.28-0.33,0.54-0.66,0.78-0.96c1.63-2,2.94-3.81,3.86-5.48c1.12-1.94,1.66-3.6,1.74-4.73c0.05-0.58,0.07-1.06-0.05-1.47
	c-0.08-0.37-0.27-0.76-0.61-1.22c-0.67-0.9-2.02-1.96-3.78-2.8c-0.44-0.2-0.9-0.4-1.36-0.57c-0.43-0.15-0.84-0.29-1.39-0.43
	c1.76,0.36,14.1,3.37,19.48,15.25C194.8,455.65,195.81,463.01,193.6,472.88z"/>
<linearGradient id="SVGID_00000023277177915493436580000002562159146455708591_" gradientUnits="userSpaceOnUse" x1="174.7827" y1="297.6954" x2="219.3218" y2="346.6691" gradientTransform="matrix(0.9933 -0.1154 0.1154 0.9933 -29.4869 37.8359)">
	<stop  offset="0" style="stop-color:#000000"/>
	<stop  offset="1" style="stop-color:#000000;stop-opacity:0"/>
</linearGradient>
<path style="opacity:0.28;fill:url(#SVGID_00000023277177915493436580000002562159146455708591_);" d="M220.09,341.17
	c-0.19,0.41-0.39,0.8-0.6,1.21c-0.41,0.83-0.83,1.65-1.26,2.47c-1.33,2.49-2.75,5.02-4.32,7.49c-1.59,2.35-3.04,4.73-4.71,7.02
	c-0.7,1.01-1.41,2-2.14,3c-5.09-12.38-14.56-22.08-22.99-28.8c1.93-7.31,2.85-14.71,2.39-21.26c-0.08-1.01-0.2-1.96-0.36-2.9
	c-0.15-0.86-0.33-1.73-0.51-2.54c-0.47-1.62-1.05-3.13-1.72-4.29c-0.67-1.12-1.4-1.96-1.95-2.41
	C182.93,300.4,216.86,308.89,220.09,341.17z"/>
<linearGradient id="SVGID_00000051370678476424955720000015628898511674900869_" gradientUnits="userSpaceOnUse" x1="201.3114" y1="309.8586" x2="241.2326" y2="353.7547">
	<stop  offset="0" style="stop-color:#000000"/>
	<stop  offset="1" style="stop-color:#000000;stop-opacity:0"/>
</linearGradient>
<path style="opacity:0.28;fill:url(#SVGID_00000051370678476424955720000015628898511674900869_);" d="M229.38,349.01
	c-0.26,0.39-0.52,0.76-0.8,1.15c-5.26-16.36-18.36-28.5-27.68-35.43c0-0.87-0.04-1.74-0.09-2.57c-0.2-1.65-0.52-3.19-1-4.39
	c-0.48-1.17-1.06-2.05-1.54-2.55C199.26,305.54,231.55,316.68,229.38,349.01z"/>
<linearGradient id="SVGID_00000111162355240326422030000007573322238167336345_" gradientUnits="userSpaceOnUse" x1="128.3847" y1="337.9608" x2="162.4944" y2="375.4667" gradientTransform="matrix(0.9933 -0.1154 0.1154 0.9933 -29.4869 37.8359)">
	<stop  offset="0" style="stop-color:#000000"/>
	<stop  offset="1" style="stop-color:#000000;stop-opacity:0"/>
</linearGradient>
<path style="opacity:0.28;fill:url(#SVGID_00000111162355240326422030000007573322238167336345_);" d="M199.77,308.38
	c-0.88,18.67-9.99,67.43-74.74,120.56c-6.63,1.8-13.73,4.05-20.15,6.74c0.04-0.05,0.1-0.08,0.13-0.13
	c17.16-15.32,33.98-30.6,47.65-46.98c6.9-8.15,13.01-16.54,18.13-25.11c1.3-2.14,2.53-4.3,3.67-6.46c1.21-2.15,2.26-4.33,3.29-6.52
	c1.07-2.17,1.93-4.37,2.89-6.54c0.87-2.11,1.59-4.19,2.27-6.36c0.43-1.33,0.82-2.68,1.16-4.02c1.93-7.31,2.85-14.71,2.39-21.26
	c-0.08-1.01-0.2-1.96-0.36-2.9c-0.15-0.86-0.33-1.73-0.51-2.54c-0.47-1.62-1.05-3.13-1.72-4.29c-0.67-1.12-1.4-1.96-1.95-2.41
	C182.4,300.28,190.89,302.4,199.77,308.38z"/>
<linearGradient id="SVGID_00000016778204332021233500000010243183911797843605_" gradientUnits="userSpaceOnUse" x1="137.0017" y1="407.7383" x2="175.2429" y2="438.1506" gradientTransform="matrix(0.9933 -0.1154 0.1154 0.9933 -29.4869 37.8359)">
	<stop  offset="0" style="stop-color:#FFFFFF"/>
	<stop  offset="1" style="stop-color:#FFFFFF;stop-opacity:0"/>
</linearGradient>
<path style="fill:url(#SVGID_00000016778204332021233500000010243183911797843605_);" d="M213.12,440.55
	c0.43,4.94-0.77,9.34-2.32,13.16c-1.6,3.84-3.6,7.26-5.54,10.28c-1.92,3.05-3.99,6.02-6.17,8.95c-2.9,3.89-5.94,7.69-9.12,11.41
	c3.86-9.61,5.12-17.41,4.76-23.71c-0.19-3.96-1.06-7.34-2.34-10.19c8.09-15.6-3.7-29.94-10.73-36.6c-0.17-0.16-0.31-0.3-0.48-0.44
	c0.24,0.15,0.48,0.32,0.73,0.5c0.17,0.02,0.37,0.07,0.54,0.11c1.39,0.28,2.91,0.68,4.4,1.13c1.48,0.44,2.93,0.93,4.34,1.49
	c5.65,2.18,10.86,5.27,14.96,9.42c2.04,2.07,3.74,4.45,4.92,6.97C212.27,435.52,212.91,438.08,213.12,440.55z"/>
<path class="st7" d="M196.67,457.57c13.95-20.45-4.79-36.89-14.75-43.66c0.17,0.02,0.37,0.07,0.54,0.11
	c1.39,0.28,2.91,0.68,4.4,1.13c1.48,0.44,2.93,0.93,4.34,1.49c5.65,2.18,10.86,5.27,14.96,9.42c2.04,2.07,3.74,4.45,4.92,6.97
	c1.2,2.48,1.83,5.05,2.04,7.51c0.43,4.94-0.77,9.34-2.32,13.16c-1.6,3.84-3.6,7.26-5.54,10.28c-1.92,3.05-3.99,6.02-6.17,8.95
	c-2.9,3.89-5.94,7.69-9.12,11.41c3.86-9.61,5.12-17.41,4.76-23.71C195.3,459.62,195.95,458.6,196.67,457.57z"/>
<linearGradient id="SVGID_00000143599678760909206150000008280119450756052657_" gradientUnits="userSpaceOnUse" x1="146.0625" y1="432.2658" x2="179.8846" y2="469.4554" gradientTransform="matrix(0.9933 -0.1154 0.1154 0.9933 -29.4869 37.8359)">
	<stop  offset="0" style="stop-color:#000000"/>
	<stop  offset="1" style="stop-color:#000000;stop-opacity:0"/>
</linearGradient>
<path style="opacity:0.28;fill:url(#SVGID_00000143599678760909206150000008280119450756052657_);" d="M193.6,472.88
	c-0.77,3.5-1.96,7.32-3.63,11.46c-1.59,1.86-3.2,3.71-4.86,5.55c-0.69,0.75-1.4,1.51-2.09,2.26c-1.19-12.95-10.11-21.7-20.59-27.54
	c1.74-1.64,3.41-3.31,5-4.98c2.23-2.29,4.27-4.63,6.17-7.02c0.28-0.33,0.54-0.66,0.78-0.96c1.63-2,2.94-3.81,3.86-5.48
	c1.12-1.94,1.66-3.6,1.74-4.73c0.05-0.58,0.07-1.06-0.05-1.47c-0.08-0.37-0.27-0.76-0.61-1.22c-0.67-0.9-2.02-1.96-3.78-2.8
	c-0.44-0.2-0.9-0.4-1.36-0.57c-0.43-0.15-0.84-0.29-1.39-0.43C175.34,435.48,200.57,441.65,193.6,472.88z"/>
<linearGradient id="SVGID_00000025426923891098858680000000259018516950107296_" gradientUnits="userSpaceOnUse" x1="153.6779" y1="424.6756" x2="183.9115" y2="457.9195" gradientTransform="matrix(0.9933 -0.1154 0.1154 0.9933 -29.4869 37.8359)">
	<stop  offset="0" style="stop-color:#000000"/>
	<stop  offset="1" style="stop-color:#000000;stop-opacity:0"/>
</linearGradient>
<path style="opacity:0.28;fill:url(#SVGID_00000025426923891098858680000000259018516950107296_);" d="M193.6,472.88
	c-3.21-9.79-10.58-16.56-19.22-21.23c1.63-2,2.94-3.81,3.86-5.48c1.12-1.94,1.66-3.6,1.74-4.73c0.05-0.58,0.07-1.06-0.05-1.47
	c-0.08-0.37-0.27-0.76-0.61-1.22c-0.67-0.9-2.02-1.96-3.78-2.8c-0.44-0.2-0.9-0.4-1.36-0.57c-0.43-0.15-0.84-0.29-1.39-0.43
	C175.34,435.48,200.57,441.65,193.6,472.88z"/>
<linearGradient id="SVGID_00000096017515704087729300000016228814767839962009_" gradientUnits="userSpaceOnUse" x1="120.9239" y1="451.9355" x2="141.9136" y2="475.0152" gradientTransform="matrix(0.9933 -0.1154 0.1154 0.9933 -29.4869 37.8359)">
	<stop  offset="0" style="stop-color:#000000"/>
	<stop  offset="1" style="stop-color:#000000;stop-opacity:0"/>
</linearGradient>
<path style="opacity:0.28;fill:url(#SVGID_00000096017515704087729300000016228814767839962009_);" d="M192.28,450.19
	c-12.45,18.22-40.6,56.62-60.74,62.79c-7.88,2.42-15.09,1.96-21.37,0.12c-0.7-4.11,0.64-8.38,4.23-12.04
	c1.02-1.05,2.3-2.06,3.55-2.89c6.34-4.13,12.46-8.25,18.3-12.44c5.88-4.14,11.43-8.39,16.68-12.73c3.36-2.74,6.54-5.54,9.52-8.38
	c1.74-1.64,3.41-3.31,5-4.98c2.23-2.29,4.27-4.63,6.17-7.02c0.28-0.33,0.54-0.66,0.78-0.96c1.63-2,2.94-3.81,3.86-5.48
	c1.12-1.94,1.66-3.6,1.74-4.73c0.05-0.58,0.07-1.06-0.05-1.47c-0.08-0.37-0.27-0.76-0.61-1.22c-0.67-0.9-2.02-1.96-3.78-2.8
	c-0.44-0.2-0.9-0.4-1.36-0.57c-0.43-0.15-0.84-0.29-1.39-0.43C174.55,435.3,186.89,438.31,192.28,450.19z"/>
<linearGradient id="SVGID_00000168826550827325291920000009596105317503008186_" gradientUnits="userSpaceOnUse" x1="31.0517" y1="365.96" x2="225.9927" y2="365.96" gradientTransform="matrix(0.9933 -0.1154 0.1154 0.9933 -29.4869 37.8359)">
	<stop  offset="0" style="stop-color:#0012A5"/>
	<stop  offset="1" style="stop-color:#00E0CA"/>
</linearGradient>
<path style="fill:url(#SVGID_00000168826550827325291920000009596105317503008186_);" d="M228.84,312.86
	c-0.57,5.86-2.02,11.32-3.84,16.62c-0.25,0.7-0.51,1.38-0.79,2.07c-1.22,3.27-2.6,6.46-4.12,9.62c-0.48-4.66-1.62-9.29-3.66-13.75
	c-0.52-1.12-1.09-2.24-1.71-3.34c-2.35-4.14-21.8-24.28-38.16-24.83c-0.46-0.01-0.9-0.02-1.35,0c-7.28,0.25-14.43,2.1-20.65,4.77
	c-1.67,0.71-3.28,1.49-4.8,2.3c-4.12,2.22-8.09,4.92-12.01,7.84c-3.86,3.01-7.53,6.31-11.03,9.78c-3.47,3.51-6.77,7.19-9.88,11.02
	c-6.1,7.68-11.52,15.7-16.07,24.14c-4.58,8.42-8.46,17.16-11.66,26.13c-0.03,0.06-0.04,0.12-0.08,0.19
	c-3.24,8.9-5.94,18.01-8.22,27.25c-4.63,18.67-7.75,37.51-9.36,56.63c-0.42,4.78-0.82,9.56-1.06,14.36
	c-0.24,4.79-0.42,9.59-0.53,14.4c-0.1,4.49-0.19,8.99-0.22,13.5c-2.88-13.25-6.79-30.49-10.73-47.43
	c-2.61-11.28-5.22-22.43-7.51-32.18c-4.31-18.42-7.53-31.89-7.53-31.89c1.17-6.93,2.55-13.9,4.32-20.88
	c2.61-10.03,6.07-20.07,10.5-30.05c1.09-2.49,2.35-4.98,3.57-7.46c1.35-2.45,2.59-4.94,4.08-7.37c1.79-3.1,3.74-6.18,5.8-9.23
	c0.09-0.11,0.16-0.24,0.25-0.35c1.1-1.66,2.28-3.29,3.47-4.92c3.54-4.74,7.4-9.41,11.67-14c4.38-4.57,9.12-9.05,14.48-13.38
	c5.45-4.32,11.47-8.44,18.4-12.23c7.03-3.72,14.87-7.15,23.76-9.66c9.01-2.43,18.79-3.9,28.79-4.07l3.91,0.05l1.95,0.04l2.07,0.14
	l4.14,0.35c1.4,0.17,2.88,0.42,4.31,0.63l2.16,0.37c0.72,0.15,1.48,0.35,2.22,0.52c1.48,0.38,2.93,0.7,4.4,1.16
	c1.48,0.49,2.94,1,4.38,1.54c1.44,0.52,2.84,1.21,4.21,1.85c5.48,2.65,10.15,6.16,13.36,9.83c3.21,3.65,5.24,7.32,6.61,10.82
	C229.21,300.75,229.41,307.02,228.84,312.86z"/>
<linearGradient id="SVGID_00000054967423742686331720000014146642495064551564_" gradientUnits="userSpaceOnUse" x1="31.4133" y1="463.2215" x2="1.6129" y2="271.239" gradientTransform="matrix(0.9933 -0.1154 0.1154 0.9933 -29.4869 37.8359)">
	<stop  offset="0" style="stop-color:#2A41FF"/>
	<stop  offset="1" style="stop-color:#DF11FF"/>
</linearGradient>
<path style="fill:url(#SVGID_00000054967423742686331720000014146642495064551564_);" d="M72.16,511.57
	c-0.08,5.77-0.05,11.56,0.09,17.34l0.02,0.39c0.13,5.9-6.49,10.77-14.8,10.87c-3.1,0.04-6.01-0.59-8.42-1.74
	c-3.75-1.71-6.37-4.59-6.85-7.91c-0.57-4.2-1.14-8.59-1.28-13.22c-1.63-10.28-3.32-20.56-5.36-30.82
	c-3.1-14.58-6.33-29.18-10.2-43.73c-3.68-14.56-7.78-29.11-11.89-43.69c-4.28-14.58-8.44-29.19-13.01-43.84
	c-2.31-7.39,4.24-14.71,14.65-16.35c4.13-0.66,8.23-0.32,11.83,0.79c5.49,1.67,9.82,5.15,11.22,9.61c0.19,0.6,0.33,1.26,0.4,1.85
	c1.34,11.68,3.27,23.32,5.32,34.97C43.87,386.11,62.94,468,72.16,511.57z"/>
<linearGradient id="SVGID_00000132066463428678236640000000360257714999466918_" gradientUnits="userSpaceOnUse" x1="133.2846" y1="326.221" x2="183.8533" y2="314.113">
	<stop  offset="0" style="stop-color:#FFFFFF"/>
	<stop  offset="1" style="stop-color:#FFFFFF;stop-opacity:0"/>
</linearGradient>
<path style="opacity:0.2;fill:url(#SVGID_00000132066463428678236640000000360257714999466918_);" d="M242.79,321.59
	c-1.54,5.77-3.9,11.08-6.58,16.2c-2.08,3.84-4.35,7.57-6.82,11.22c0.39-5.85-0.3-11.74-2.49-17.4c-0.09-0.21-0.19-0.47-0.35-0.76
	c-1.21-2.39-4.63-7.26-9.33-12.22c-6.43-6.77-15.22-13.71-24.08-14.73c-13.47-4.59-43.27-5.88-107.72,16.98
	c1.36-1.56,2.82-3.09,4.27-4.6c4.31-4.43,8.92-8.76,13.92-12.97c5.11-4.18,10.57-8.26,16.61-12.13c6.13-3.85,12.8-7.47,20.31-10.68
	c7.6-3.13,15.96-5.91,25.21-7.69c6.84-1.25,14.01-1.94,21.29-1.96c2.66-0.02,5.33,0.06,7.99,0.22l3.88,0.36l1.93,0.2l2.04,0.3
	l4.05,0.68c1.36,0.29,2.79,0.64,4.18,0.98l2.08,0.54c0.69,0.21,1.41,0.47,2.12,0.69c1.41,0.49,2.79,0.93,4.18,1.5
	c1.39,0.6,2.75,1.23,4.09,1.88c1.34,0.63,2.62,1.42,3.88,2.17l0.91,0.59c4.59,2.97,8.29,6.58,10.72,10.24
	c2.58,3.88,3.98,7.7,4.76,11.28C245.17,309.59,244.32,315.83,242.79,321.59z"/>
<linearGradient id="SVGID_00000021084331056456552410000014863350255571199625_" gradientUnits="userSpaceOnUse" x1="206.1772" y1="336.6426" x2="218.8992" y2="277.926">
	<stop  offset="0" style="stop-color:#FFFFFF"/>
	<stop  offset="1" style="stop-color:#FFFFFF;stop-opacity:0"/>
</linearGradient>
<path style="opacity:0.47;fill:url(#SVGID_00000021084331056456552410000014863350255571199625_);" d="M242.79,321.59
	c-1.54,5.77-3.9,11.08-6.58,16.2c-2.08,3.84-4.35,7.57-6.82,11.22c0.39-5.85-0.3-11.74-2.49-17.4c-0.74-1.95-4.4-7.41-9.68-12.99
	c5.33-11.57,4.92-29.64-30.19-47.8c2.66-0.02,5.33,0.06,7.99,0.22l3.88,0.36l1.93,0.2l2.04,0.3l4.05,0.68
	c1.36,0.29,2.79,0.64,4.18,0.98l2.08,0.54c0.69,0.21,1.41,0.47,2.12,0.69c1.41,0.49,2.79,0.93,4.18,1.5
	c1.39,0.6,2.75,1.23,4.09,1.88c1.34,0.63,2.62,1.42,3.88,2.17c5,3.07,9.05,6.93,11.63,10.83c2.58,3.88,3.98,7.7,4.76,11.28
	C245.17,309.59,244.32,315.83,242.79,321.59z"/>
<linearGradient id="SVGID_00000083771336215663200080000006458854174086423955_" gradientUnits="userSpaceOnUse" x1="226.8772" y1="341.5064" x2="238.9421" y2="285.822">
	<stop  offset="0" style="stop-color:#FFFFFF"/>
	<stop  offset="1" style="stop-color:#FFFFFF;stop-opacity:0"/>
</linearGradient>
<path style="opacity:0.47;fill:url(#SVGID_00000083771336215663200080000006458854174086423955_);" d="M242.79,321.59
	c-1.54,5.77-3.9,11.08-6.58,16.2c-2.08,3.84-4.35,7.57-6.82,11.22c0.39-5.85-0.3-11.74-2.49-17.4c-0.09-0.21-0.19-0.47-0.35-0.76
	c9.98-10.78,16.03-27.16,1.8-49.93c4.59,2.97,8.29,6.58,10.72,10.24c2.58,3.88,3.98,7.7,4.76,11.28
	C245.17,309.59,244.32,315.83,242.79,321.59z"/>
<linearGradient id="SVGID_00000093143049598734819960000006392793458127545984_" gradientUnits="userSpaceOnUse" x1="15.9621" y1="272.4796" x2="3.6776" y2="489.3649" gradientTransform="matrix(0.9913 -0.1317 0.1317 0.9913 -33.7636 42.7962)">
	<stop  offset="0" style="stop-color:#FFFFFF"/>
	<stop  offset="1" style="stop-color:#FFFFFF;stop-opacity:0"/>
</linearGradient>
<path style="opacity:0.28;fill:url(#SVGID_00000093143049598734819960000006392793458127545984_);" d="M18.41,367.36
	c6.5,20.26,42.61,124.74,34.92,168.08c-3.79-1.67-6.48-4.51-7.03-7.83c-0.66-4.19-1.34-8.57-1.58-13.2
	c-1.87-10.26-3.79-20.52-6.07-30.76c-3.44-14.54-7-29.1-11.2-43.6c-4.01-14.52-8.45-29.02-12.89-43.55
	c-4.61-14.53-9.11-29.09-14.02-43.68c-2.48-7.36,3.91-14.76,14.27-16.52c4.11-0.71,8.22-0.42,11.85,0.65
	C21.73,341.05,13.13,350.93,18.41,367.36z"/>
<linearGradient id="SVGID_00000003097349240703386550000006257807816723816605_" gradientUnits="userSpaceOnUse" x1="35.2033" y1="439.6957" x2="134.7012" y2="293.0253" gradientTransform="matrix(0.9933 -0.1154 0.1154 0.9933 -29.4869 37.8359)">
	<stop  offset="0" style="stop-color:#000000"/>
	<stop  offset="1" style="stop-color:#000000;stop-opacity:0"/>
</linearGradient>
<path style="opacity:0.28;fill:url(#SVGID_00000003097349240703386550000006257807816723816605_);" d="M154.56,304.03
	c-1.67,0.71-3.28,1.49-4.8,2.3c-4.12,2.22-8.09,4.92-12.01,7.84c-3.86,3.01-7.53,6.31-11.03,9.78c-3.47,3.51-6.77,7.19-9.88,11.02
	c-6.1,7.68-11.52,15.7-16.07,24.14c-4.58,8.42-8.46,17.16-11.66,26.13c-3.27,8.96-6,18.14-8.3,27.44
	c-4.63,18.67-7.75,37.51-9.36,56.63c-0.42,4.78-0.82,9.56-1.06,14.36c-0.24,4.79-0.42,9.59-0.53,14.4c-0.1,4.49-0.19,8.99-0.22,13.5
	c-4.79-22.07-12.49-55.2-18.24-79.61C74,332.86,128.29,309.5,154.56,304.03z"/>
<linearGradient id="SVGID_00000101803865220010062010000012680466553190086289_" gradientUnits="userSpaceOnUse" x1="73.763" y1="328.3763" x2="39.0402" y2="501.9906" gradientTransform="matrix(0.9933 -0.1154 0.1154 0.9933 -29.4869 37.8359)">
	<stop  offset="0" style="stop-color:#000000"/>
	<stop  offset="1" style="stop-color:#000000;stop-opacity:0"/>
</linearGradient>
<path style="opacity:0.28;fill:url(#SVGID_00000101803865220010062010000012680466553190086289_);" d="M93.43,369.63
	c-3.55,10.01-6.52,20.27-9.03,30.67c-5.08,21.01-8.5,42.21-10.27,63.72c-0.46,5.37-0.89,10.76-1.16,16.15
	c-0.27,5.39-0.46,10.79-0.58,16.21c-0.11,5.06-0.21,10.11-0.24,15.19c-3.16-14.91-7.46-34.3-11.77-53.37
	C66.39,425.88,79.34,395.38,93.43,369.63z"/>
<text transform="matrix(1.7386 0 0 1 235.5215 528.417)" class="st19 st20">luefiza</text>
</svg>
